<svg width="27" height="23" viewBox="0 0 27 23" fill="none" xmlns="http://www.w3.org/2000/svg">
<g clip-path="url(#clip0_19_8)">
<path d="M7.10085 0.241922C8.91041 0.179367 10.6768 0.737416 12.0845 1.83836C12.1328 1.87502 12.1811 1.91162 12.2294 1.94815C12.4647 2.12872 12.4647 2.12872 12.5493 2.20604C12.5493 2.233 12.5493 2.25996 12.5493 2.28774C12.572 2.29617 12.5946 2.30459 12.618 2.31327C12.7372 2.38002 12.8171 2.46242 12.9099 2.55983C12.975 2.62482 12.975 2.62482 13.0986 2.65542C13.0749 2.80221 13.0261 2.85785 12.9078 2.95013C12.7111 3.10933 12.5297 3.28023 12.3479 3.45509C12.3125 3.48895 12.2771 3.5228 12.2407 3.55768C12.1247 3.66884 12.0088 3.78016 11.8931 3.89152C11.8528 3.9302 11.8126 3.96887 11.7724 4.00754C11.6049 4.1686 11.4374 4.32972 11.2702 4.49098C11.0322 4.72043 10.7938 4.94952 10.555 5.17812C10.386 5.33987 10.2175 5.50201 10.0493 5.66444C9.94927 5.761 9.84904 5.85732 9.74846 5.95334C9.10474 6.56826 8.51574 7.16475 8.4824 8.08881C8.49108 8.6062 8.64547 9.20796 9.0317 9.59221C9.04912 9.60838 9.06655 9.62455 9.08451 9.6412C9.08451 9.66817 9.08451 9.69513 9.08451 9.72291C9.1124 9.72291 9.14029 9.72291 9.16902 9.72291C9.16902 9.74987 9.16902 9.77684 9.16902 9.80462C9.19691 9.80462 9.22479 9.80462 9.25353 9.80462C9.28054 9.83242 9.30756 9.86023 9.33539 9.88887C9.76518 10.3153 10.3474 10.4786 10.948 10.5031C11.8611 10.481 12.4756 10.099 13.096 9.48035C13.1666 9.41 13.2374 9.33983 13.3084 9.26986C13.3391 9.23916 13.3699 9.20846 13.4016 9.17684C13.4789 9.11012 13.4789 9.11012 13.5634 9.11012C13.5721 9.08737 13.5808 9.06462 13.5898 9.04118C13.6551 8.93493 13.7354 8.87122 13.8347 8.79479C13.9764 8.68357 14.0962 8.55795 14.2104 8.42073C14.293 8.32291 14.3815 8.24201 14.481 8.16025C14.65 8.01883 14.809 7.87022 14.9663 7.71683C14.9936 7.69041 15.0208 7.664 15.0489 7.63679C15.1348 7.55351 15.2206 7.47009 15.3063 7.38665C15.3644 7.33029 15.4225 7.27393 15.4806 7.21758C15.587 7.11446 15.6932 7.01128 15.7994 6.90804C15.822 6.88616 15.8446 6.86428 15.8679 6.84174C15.9215 6.78942 15.9741 6.73614 16.0264 6.68269C16.0986 6.61811 16.0986 6.61811 16.1831 6.61811C16.1831 6.64508 16.1831 6.67204 16.1831 6.69982C16.2197 6.71499 16.2197 6.71499 16.257 6.73046C16.366 6.789 16.4392 6.85442 16.5211 6.94494C16.5211 6.9719 16.5211 6.99886 16.5211 7.02664C16.5444 7.03582 16.5676 7.045 16.5916 7.05446C16.7189 7.12409 16.8136 7.21698 16.9154 7.31689C16.9374 7.33809 16.9593 7.35929 16.9819 7.38113C17.0543 7.45113 17.1263 7.52142 17.1983 7.59171C17.2487 7.64059 17.2991 7.68944 17.3496 7.73828C17.4823 7.8669 17.6147 7.99577 17.7471 8.12469C17.8814 8.25535 18.0159 8.38579 18.1504 8.51624C18.368 8.7273 18.5854 8.9385 18.8026 9.14988C18.859 9.20474 18.9154 9.25956 18.9718 9.31438C19.0099 9.35144 19.0479 9.3885 19.0871 9.42668C19.1633 9.4997 19.2386 9.56494 19.3231 9.62844C19.3605 9.65961 19.398 9.69079 19.4366 9.72291C19.4366 9.74987 19.4366 9.77684 19.4366 9.80462C19.4645 9.80462 19.4924 9.80462 19.5211 9.80462C19.5211 9.83158 19.5211 9.85854 19.5211 9.88632C19.563 9.8998 19.6048 9.91328 19.6479 9.92717C19.6479 9.95414 19.6479 9.9811 19.6479 10.0089C19.674 10.019 19.7002 10.0291 19.7271 10.0395C19.834 10.1003 19.8473 10.1493 19.9014 10.254C19.9258 10.2651 19.9502 10.2762 19.9753 10.2876C20.1009 10.3511 20.1832 10.4356 20.2829 10.5331C20.3027 10.5524 20.3226 10.5718 20.3431 10.5917C20.4065 10.6534 20.4695 10.7154 20.5326 10.7774C20.5748 10.8186 20.617 10.8598 20.6593 10.901C20.7374 10.9772 20.8154 11.0536 20.8934 11.1301C20.9989 11.2334 21.105 11.3361 21.2113 11.4387C21.2604 11.4867 21.3096 11.5346 21.3587 11.5827C21.4125 11.6351 21.4664 11.6876 21.5203 11.74C21.5599 11.7789 21.5599 11.7789 21.6004 11.8185C21.7292 11.9437 21.8592 12.0649 21.9981 12.1796C22.238 12.38 22.4619 12.5964 22.6867 12.8124C22.7384 12.8619 22.7903 12.9112 22.8423 12.9603C22.9186 13.0322 22.9942 13.1047 23.0698 13.1773C23.0928 13.1989 23.1158 13.2204 23.1395 13.2426C23.4292 13.5242 23.5715 13.8756 23.5933 14.2703C23.5814 14.6647 23.3897 14.9989 23.1127 15.2789C22.7312 15.6254 22.3898 15.7135 21.8698 15.7014C21.3827 15.6563 21.0358 15.3189 20.7016 15.0006C20.6809 14.9809 20.6602 14.9613 20.6389 14.9411C20.493 14.7987 20.493 14.7987 20.493 14.7069C20.4684 14.6964 20.4438 14.686 20.4184 14.6752C20.3149 14.6204 20.2472 14.5606 20.1645 14.4795C20.1334 14.4492 20.1023 14.419 20.0702 14.3878C20.0365 14.3546 20.0028 14.3214 19.9681 14.2872C19.9323 14.2523 19.8965 14.2173 19.8596 14.1813C19.7818 14.1054 19.7041 14.0294 19.6265 13.9533C19.5037 13.8329 19.3805 13.7128 19.2572 13.5928C18.9067 13.2516 18.5567 12.91 18.2073 12.5678C18.0142 12.3788 17.8208 12.19 17.6269 12.0017C17.5044 11.8827 17.3823 11.7631 17.2606 11.6433C17.1668 11.5512 17.0723 11.4597 16.9779 11.3682C16.9444 11.335 16.911 11.3018 16.8765 11.2676C16.6952 11.0932 16.5665 10.9841 16.3099 10.9485C16.1663 10.9769 16.1146 11.0122 16.0194 11.1196C15.9557 11.2736 15.9742 11.3597 16.0141 11.5204C16.0825 11.6091 16.1437 11.6774 16.225 11.7528C16.2469 11.7741 16.2688 11.7954 16.2914 11.8173C16.3637 11.8872 16.4368 11.9562 16.5099 12.0252C16.5606 12.0738 16.6111 12.1224 16.6617 12.1712C16.7947 12.2991 16.9285 12.4262 17.0624 12.5532C17.1713 12.6567 17.2797 12.7608 17.3881 12.865C17.5177 12.9895 17.6476 13.1138 17.7775 13.238C17.8022 13.2615 17.8268 13.2851 17.8522 13.3094C17.9223 13.3763 17.9926 13.4432 18.063 13.5099C18.0835 13.5295 18.104 13.5491 18.1252 13.5693C18.2187 13.6577 18.3125 13.739 18.416 13.8166C18.446 13.8408 18.4761 13.865 18.507 13.8899C18.507 13.9168 18.507 13.9438 18.507 13.9716C18.5341 13.9825 18.5611 13.9935 18.5889 14.0048C18.6761 14.0533 18.6761 14.0533 18.7183 14.1758C18.7436 14.1876 18.7689 14.1994 18.7949 14.2116C18.9165 14.2721 18.9732 14.3581 19.0563 14.4618C19.0982 14.4888 19.14 14.5157 19.1831 14.5435C19.1831 14.5705 19.1831 14.5974 19.1831 14.6252C19.2249 14.6387 19.2668 14.6522 19.3099 14.6661C19.3099 14.693 19.3099 14.72 19.3099 14.7478C19.3323 14.7562 19.3546 14.7646 19.3777 14.7733C19.5209 14.8528 19.6295 14.9626 19.7453 15.0748C19.7707 15.0992 19.7961 15.1236 19.8223 15.1487C19.876 15.2004 19.9297 15.2522 19.9832 15.3042C20.0642 15.3826 20.1458 15.4605 20.2274 15.5384C20.6232 15.9191 20.9949 16.2776 21.0436 16.8412C21.0401 17.1416 20.9387 17.4133 20.7465 17.6483C20.7007 17.709 20.7007 17.709 20.6541 17.7709C20.4273 18.0279 20.1108 18.1994 19.7636 18.234C19.2364 18.2398 18.9015 18.1411 18.5199 17.784C18.4878 17.7527 18.4557 17.7214 18.4225 17.6892C18.3921 17.6613 18.3618 17.6333 18.3304 17.6046C18.1811 17.466 18.1811 17.466 18.1268 17.4032C18.1268 17.3762 18.1268 17.3493 18.1268 17.3215C18.1023 17.3112 18.0779 17.3009 18.0527 17.2902C17.9459 17.2335 17.8757 17.1699 17.7902 17.086C17.7574 17.054 17.7245 17.022 17.6906 16.989C17.6371 16.9362 17.6371 16.9362 17.5825 16.8824C17.5244 16.8256 17.4663 16.7688 17.4081 16.712C17.3457 16.651 17.2834 16.5899 17.2212 16.5288C17.0913 16.4013 16.961 16.2742 16.8306 16.1472C16.4599 15.7861 16.0896 15.4246 15.7201 15.0623C15.516 14.8621 15.3114 14.6624 15.1063 14.4631C14.9766 14.3371 14.8475 14.2105 14.7188 14.0835C14.6196 13.9861 14.5197 13.8894 14.4198 13.7926C14.3844 13.7573 14.349 13.7221 14.3125 13.6858C14.1185 13.4909 14.1185 13.4909 13.8649 13.3957C13.721 13.4 13.6114 13.4282 13.4789 13.4813C13.4707 13.5424 13.4651 13.6038 13.4604 13.6652C13.457 13.6993 13.4535 13.7334 13.45 13.7686C13.5329 14.1165 13.9768 14.4174 14.2305 14.6614C14.2741 14.7035 14.3177 14.7456 14.3613 14.7877C14.4752 14.8977 14.5892 15.0075 14.7032 15.1173C14.8191 15.2289 14.9348 15.3406 15.0505 15.4522C15.2542 15.6488 15.4579 15.8452 15.6618 16.0415C15.7318 16.1091 15.8018 16.1767 15.8717 16.2444C15.9423 16.3125 16.0134 16.3802 16.0849 16.4475C16.1217 16.4823 16.1584 16.5171 16.1963 16.5529C16.2336 16.5881 16.2709 16.6232 16.3094 16.6594C16.3944 16.7496 16.3944 16.7496 16.3944 16.8313C16.4191 16.8419 16.4438 16.8526 16.4692 16.8636C16.5692 16.916 16.637 16.9727 16.7182 17.0495C16.7478 17.0773 16.7774 17.1052 16.8079 17.1339C16.8554 17.1792 16.8554 17.1792 16.9037 17.2254C16.9366 17.2568 16.9696 17.2882 17.0035 17.3205C17.0731 17.387 17.1427 17.4537 17.2121 17.5205C17.3174 17.6216 17.4236 17.7217 17.5298 17.8218C18.3313 18.5862 18.3313 18.5862 18.3644 19.142C18.342 19.5369 18.2175 19.8526 17.9332 20.1398C17.6278 20.3854 17.2669 20.5238 16.8692 20.5166C16.5275 20.4855 16.2667 20.3601 16.0141 20.1403C15.9881 20.1198 15.9621 20.0992 15.9354 20.0781C15.8564 20.0061 15.8066 19.9496 15.7606 19.8543C15.7587 19.7331 15.7748 19.6197 15.7921 19.4996C15.8287 19.0372 15.6301 18.5701 15.3328 18.2151C14.8868 17.7551 14.3781 17.5503 13.7324 17.5258C13.6953 17.3746 13.6891 17.2414 13.6954 17.0866C13.6977 16.886 13.6707 16.7289 13.5952 16.5427C13.5634 16.4636 13.5634 16.4636 13.5459 16.3849C13.4243 15.9689 13.0489 15.6339 12.6838 15.4102C12.2598 15.188 11.7998 15.1143 11.3239 15.0746C11.3379 14.8454 11.3518 14.6162 11.3662 14.3801C11.3383 14.3666 11.3104 14.3531 11.2817 14.3393C11.2639 14.2692 11.2639 14.2692 11.25 14.1784C11.1504 13.7108 10.7861 13.3036 10.3864 13.0396C9.94866 12.7883 9.50303 12.7197 9.00001 12.7051C8.99837 12.651 8.99837 12.651 8.9967 12.5958C8.96985 12.0464 8.81411 11.5742 8.42298 11.1604C7.97534 10.7684 7.44548 10.5816 6.84508 10.5808C6.3364 10.6151 5.9758 10.7893 5.6118 11.1293C5.53522 11.1936 5.53522 11.1936 5.45071 11.1936C5.44069 11.2165 5.43067 11.2395 5.42034 11.2631C5.35381 11.3785 5.27253 11.4582 5.17606 11.5517C5.11985 11.6062 5.11985 11.6062 5.06251 11.6618C5.02329 11.6994 4.98407 11.737 4.94367 11.7758C4.90445 11.814 4.86523 11.8522 4.82483 11.8916C4.78736 11.9277 4.74988 11.9639 4.71127 12.0011C4.67685 12.0343 4.64243 12.0675 4.60696 12.1017C4.52113 12.1741 4.52113 12.1741 4.43663 12.1741C4.42824 12.1961 4.41985 12.2181 4.41121 12.2408C4.31119 12.4045 4.15582 12.5158 4.00881 12.6399C3.85459 12.773 3.74108 12.9017 3.63381 13.0728C3.02118 12.9812 2.21489 11.9809 1.85767 11.5215C1.3695 10.8763 0.981118 10.1852 0.70247 9.43184C0.691349 9.4018 0.680227 9.37176 0.668768 9.34081C0.624741 9.21811 0.591555 9.11837 0.591555 8.98756C0.563667 8.97408 0.53578 8.9606 0.507048 8.94671C0.527963 8.86582 0.527963 8.86582 0.549301 8.7833C0.521414 8.76982 0.493526 8.75634 0.464794 8.74245C0.198761 7.82458 0.234279 6.55978 0.464794 5.63765C0.473189 5.6036 0.481584 5.56955 0.490233 5.53446C0.623176 5.01195 0.811509 4.52695 1.05634 4.0444C1.06951 4.01778 1.08268 3.99116 1.09624 3.96373C1.39322 3.36759 1.80835 2.84556 2.2817 2.36945C2.31977 2.33053 2.35784 2.29161 2.39707 2.25152C2.87319 1.77251 3.40605 1.3738 4.01409 1.06216C4.04198 1.06216 4.06986 1.06216 4.0986 1.06216C4.11254 1.0352 4.12648 1.00824 4.14085 0.98046C4.20929 0.944424 4.20929 0.944424 4.29831 0.90817C4.33112 0.894728 4.36394 0.881286 4.39774 0.867437C4.43323 0.853337 4.46872 0.839236 4.50529 0.824709C4.56003 0.802848 4.56003 0.802848 4.61588 0.780545C5.42582 0.460977 6.22474 0.274152 7.10085 0.241922Z" fill="#2843FE"/>
<path d="M23.389 1.13908C23.4892 1.19386 23.4892 1.19386 23.5917 1.17164C23.6265 1.15789 23.6265 1.15789 23.662 1.14387C23.6635 1.16699 23.665 1.19011 23.6666 1.21393C23.7235 1.35504 23.8421 1.41334 23.9683 1.49367C25.5475 2.54244 26.5892 4.10951 26.9577 5.92362C26.9976 6.15119 27.008 6.37191 27.0101 6.602C27.0104 6.63955 27.0107 6.67711 27.0111 6.7158C27.0117 6.79529 27.0121 6.87478 27.0125 6.95426C27.013 7.03391 27.0138 7.11356 27.0151 7.19319C27.024 7.75734 26.9723 8.27637 26.831 8.82416C26.8199 8.86744 26.8088 8.91073 26.7974 8.95532C26.7704 9.05374 26.741 9.15085 26.7095 9.248C26.6934 9.29854 26.6934 9.29854 26.6769 9.35009C26.2359 10.6969 25.2028 12.166 24 12.9911C23.842 12.9911 23.8119 12.953 23.6963 12.8532C23.6661 12.8276 23.6358 12.8021 23.6047 12.7757C23.5352 12.7052 23.5352 12.7052 23.5352 12.6234C23.5091 12.6133 23.4829 12.6032 23.456 12.5928C23.3491 12.532 23.3358 12.483 23.2817 12.3783C23.2425 12.3594 23.2425 12.3594 23.2025 12.34C23.0815 12.2816 23.0229 12.1964 22.9437 12.0924C22.9158 12.1058 22.8879 12.1193 22.8592 12.1332C22.8424 12.1036 22.8257 12.074 22.8085 12.0435C22.7269 11.9207 22.6377 11.8308 22.529 11.7298C22.4007 11.6086 22.277 11.4876 22.162 11.3545C22.0704 11.2346 22.0704 11.2346 21.9718 11.1936C21.9718 11.1666 21.9718 11.1397 21.9718 11.1119C21.93 11.0984 21.8882 11.0849 21.8451 11.071C21.8451 11.0441 21.8451 11.0171 21.8451 10.9893C21.8189 10.9792 21.7928 10.9691 21.7658 10.9587C21.659 10.8979 21.6457 10.8489 21.5915 10.7442C21.5541 10.7267 21.5541 10.7267 21.5159 10.7088C21.4016 10.6521 21.329 10.5816 21.2386 10.4933C21.2026 10.4584 21.1667 10.4235 21.1296 10.3875C21.0911 10.3498 21.0527 10.312 21.013 10.2731C20.9729 10.2341 20.9327 10.195 20.8925 10.1559C20.7868 10.0532 20.6814 9.95033 20.5761 9.84735C20.4074 9.68248 20.2384 9.51789 20.0693 9.35343C20.0103 9.296 19.9515 9.23843 19.8927 9.18085C19.8569 9.14595 19.821 9.11105 19.7841 9.0751C19.7526 9.04432 19.7212 9.01354 19.6887 8.98183C19.603 8.89921 19.603 8.89921 19.4789 8.82416C19.4384 8.78171 19.3994 8.73794 19.3616 8.69325C19.2306 8.54235 19.0912 8.40244 18.9471 8.26326C18.9206 8.23745 18.894 8.21164 18.8667 8.18505C18.7798 8.10068 18.6928 8.01646 18.6057 7.93226C18.5449 7.87333 18.4841 7.8144 18.4233 7.75547C18.2963 7.63244 18.1692 7.50949 18.0421 7.38659C17.8791 7.22905 17.7165 7.07123 17.5539 6.91334C17.4286 6.79176 17.3032 6.67037 17.1776 6.54904C17.1176 6.4909 17.0576 6.43271 16.9976 6.37444C16.914 6.29319 16.8301 6.2122 16.7462 6.13127C16.7215 6.10718 16.6968 6.08309 16.6714 6.05828C16.5056 5.89924 16.3996 5.81071 16.1673 5.78575C15.987 5.80378 15.9038 5.86059 15.7606 5.96448C15.7187 5.97796 15.6769 5.99144 15.6338 6.00533C15.6221 6.02824 15.6105 6.05114 15.5985 6.07475C15.5285 6.20855 15.4213 6.30261 15.3116 6.40619C15.2802 6.43657 15.2802 6.43657 15.2481 6.46755C15.1356 6.57503 15.0206 6.67728 14.8997 6.77588C14.6611 6.97723 14.4409 7.19634 14.2184 7.41406C14.1377 7.49305 14.0567 7.57186 13.9758 7.65063C13.7457 7.87439 13.5159 8.09831 13.2865 8.32267C13.1456 8.46047 13.0043 8.59797 12.8629 8.73528C12.8094 8.7873 12.756 8.83944 12.7028 8.89169C12.1929 9.39213 11.7247 9.77664 10.9656 9.80845C10.473 9.79576 10.0167 9.60716 9.66021 9.27864C9.34354 8.94679 9.17552 8.58463 9.15317 8.12711C9.19031 7.75002 9.29109 7.47495 9.54929 7.19005C9.57544 7.15946 9.60158 7.12886 9.62852 7.09734C9.77491 6.92897 9.77491 6.92897 9.84507 6.86323C9.87296 6.86323 9.90084 6.86323 9.92958 6.86323C9.94003 6.83964 9.95049 6.81605 9.96127 6.79174C10.0218 6.68637 10.0895 6.61562 10.1831 6.53641C10.211 6.53641 10.2389 6.53641 10.2676 6.53641C10.2807 6.50355 10.2807 6.50355 10.294 6.47003C10.3746 6.33543 10.4809 6.22619 10.6056 6.12789C10.6335 6.12789 10.6614 6.12789 10.6901 6.12789C10.7011 6.10398 10.7121 6.08008 10.7234 6.05545C10.7782 5.9581 10.837 5.89424 10.9181 5.8162C10.9478 5.78745 10.9775 5.75871 11.0081 5.72909C11.0406 5.69798 11.0732 5.66686 11.1067 5.6348C11.141 5.6017 11.1753 5.5686 11.2106 5.5345C11.3242 5.42497 11.438 5.31572 11.5519 5.20647C11.6309 5.13037 11.7098 5.05426 11.7887 4.97812C11.9755 4.79799 12.1625 4.61804 12.3496 4.43818C12.704 4.09742 13.0582 3.75637 13.4121 3.41514C13.5283 3.30321 13.6447 3.19142 13.761 3.07964C13.8325 3.0108 13.904 2.94196 13.9755 2.87311C14.0078 2.84215 14.0401 2.8112 14.0734 2.77932C14.2369 2.62152 14.3899 2.46141 14.5352 2.28774C14.6419 2.18556 14.7577 2.09449 14.8732 2.00178C14.8947 1.98417 14.9162 1.96657 14.9383 1.94844C15.5375 1.45837 16.3301 0.861129 17.1127 0.694494C17.2061 0.663269 17.2994 0.631737 17.3926 0.600022C19.317 -0.028107 21.6377 0.1177 23.389 1.13908Z" fill="#2843FE"/>
<path d="M12.4331 16.0857C12.7651 16.3504 12.9599 16.6313 13.0303 17.05C13.0494 17.3988 12.9085 17.6727 12.6731 17.9273C12.5775 18.0269 12.4796 18.1239 12.3803 18.2202C12.3564 18.2452 12.3325 18.2701 12.3078 18.2957C12.2535 18.3428 12.2535 18.3428 12.169 18.3428C12.1594 18.3656 12.1498 18.3883 12.14 18.4117C12.0686 18.5332 11.9803 18.6173 11.8732 18.7105C11.8454 18.7105 11.8175 18.7105 11.7887 18.7105C11.7778 18.7343 11.7668 18.7582 11.7555 18.7828C11.7007 18.8802 11.6411 18.9455 11.5603 19.0239C11.5184 19.0646 11.5184 19.0646 11.4756 19.1061C11.4465 19.1339 11.4174 19.1618 11.3873 19.1905C11.3582 19.219 11.329 19.2475 11.299 19.2768C11.2711 19.3037 11.2431 19.3306 11.2144 19.3584C11.1888 19.383 11.1632 19.4076 11.1369 19.433C11.0704 19.4867 11.0704 19.4867 10.9859 19.4867C10.958 19.5406 10.9301 19.5945 10.9014 19.6501C10.8735 19.6501 10.8456 19.6501 10.8169 19.6501C10.8067 19.6736 10.7964 19.6972 10.7859 19.7214C10.6266 19.9957 10.3054 20.205 9.99824 20.291C9.61946 20.3346 9.20545 20.2993 8.87853 20.0918C8.56697 19.8464 8.41272 19.5377 8.33187 19.165C8.2972 18.7926 8.42237 18.5049 8.66198 18.2202C8.81189 18.0523 8.96804 17.8902 9.12677 17.73C9.15759 17.6983 9.18842 17.6665 9.22019 17.6338C9.29578 17.5666 9.29578 17.5666 9.38029 17.5666C9.38987 17.5439 9.39946 17.5211 9.40934 17.4977C9.51187 17.323 9.65208 17.1932 9.84508 17.1172C9.84508 17.0903 9.84508 17.0633 9.84508 17.0355C9.87296 17.0355 9.90085 17.0355 9.92958 17.0355C9.95747 16.9816 9.98536 16.9277 10.0141 16.8721C10.042 16.8721 10.0699 16.8721 10.0986 16.8721C10.1098 16.8481 10.121 16.8241 10.1325 16.7993C10.2195 16.6434 10.3529 16.5294 10.4815 16.4049C10.5215 16.3647 10.5215 16.3647 10.5623 16.3237C11.0745 15.8255 11.8052 15.654 12.4331 16.0857Z" fill="#2843FE"/>
<path d="M10.0141 13.6039C10.2764 13.7757 10.4329 13.9807 10.5634 14.2575C10.5865 14.3052 10.5865 14.3052 10.6101 14.3538C10.6559 14.4847 10.6636 14.5968 10.6664 14.735C10.6689 14.8048 10.6689 14.8048 10.6715 14.8759C10.5945 15.3909 10.1917 15.7033 9.82394 16.0474C9.76761 16.1008 9.71132 16.1543 9.65509 16.2079C9.55182 16.3061 9.44827 16.404 9.34438 16.5015C9.22853 16.6104 9.11399 16.7205 9 16.8313C7.94101 17.8551 7.94101 17.8551 7.39172 17.873C7.02458 17.8592 6.74467 17.734 6.47238 17.4999C6.42253 17.444 6.42253 17.444 6.42253 17.3623C6.39464 17.3623 6.36676 17.3623 6.33802 17.3623C6.12662 17.0694 6.0425 16.7063 6.10563 16.3512C6.21318 15.9913 6.48598 15.7332 6.76056 15.4831C6.86569 15.3838 6.96453 15.2877 7.05633 15.1767C7.14804 15.0659 7.24785 14.9703 7.35211 14.8703C7.39566 14.8275 7.43914 14.7846 7.48254 14.7416C7.61151 14.614 7.741 14.4869 7.87068 14.36C7.92623 14.3055 7.98162 14.2508 8.03685 14.196C8.1174 14.1161 8.19849 14.0368 8.27971 13.9575C8.30388 13.9333 8.32806 13.9091 8.35297 13.8841C8.81802 13.4343 9.41876 13.2807 10.0141 13.6039Z" fill="#2843FE"/>
<path d="M14.5775 18.4777C14.8518 18.703 15.0908 19.0076 15.1268 19.3641C15.1294 19.39 15.1321 19.4158 15.1348 19.4425C15.1538 19.7771 15.0565 20.0769 14.8307 20.3317C14.6358 20.5396 14.4313 20.7385 14.2262 20.9369C14.1688 20.9932 14.1688 20.9932 14.1103 21.0506C14.0738 21.086 14.0372 21.1213 13.9996 21.1578C13.9665 21.19 13.9335 21.2221 13.8994 21.2552C13.8169 21.325 13.8169 21.325 13.7324 21.325C13.7219 21.3503 13.7115 21.3756 13.7007 21.4016C13.6383 21.5043 13.5871 21.5195 13.4789 21.5702C13.458 21.6308 13.458 21.6308 13.4366 21.6927C13.3645 21.7601 13.3645 21.7601 13.2755 21.8306C13.1763 21.9115 13.0975 21.9801 13.0194 22.0808C12.7838 22.3487 12.4665 22.5311 12.1035 22.5643C11.6322 22.5691 11.3246 22.4991 10.9772 22.1847C10.7427 21.9265 10.6377 21.6258 10.6479 21.2842C10.7312 20.5284 11.64 19.9088 12.1659 19.4004C12.2705 19.2992 12.3749 19.1978 12.4791 19.0963C12.5797 18.9985 12.6805 18.901 12.7814 18.8035C12.8371 18.7491 12.8371 18.7491 12.8941 18.6937C12.9289 18.6601 12.9638 18.6265 12.9997 18.5919C13.0301 18.5624 13.0605 18.533 13.0918 18.5026C13.5296 18.1279 14.1184 18.1503 14.5775 18.4777Z" fill="#2843FE"/>
<path d="M7.85916 11.5613C8.16417 11.8435 8.30146 12.1217 8.33715 12.529C8.32723 12.9551 8.07048 13.2343 7.77465 13.5222C7.72039 13.5762 7.66614 13.6302 7.61191 13.6842C7.55443 13.7409 7.49688 13.7975 7.43927 13.8541C7.41125 13.8818 7.38324 13.9094 7.35438 13.9379C7.32798 13.9634 7.30158 13.989 7.27438 14.0153C7.25069 14.0384 7.227 14.0614 7.20259 14.0852C7.14085 14.135 7.14085 14.135 7.05634 14.135C7.04709 14.1573 7.03783 14.1796 7.02829 14.2027C6.95362 14.3293 6.85221 14.4227 6.74473 14.5231C6.72435 14.5424 6.70398 14.5617 6.683 14.5817C6.62448 14.6372 6.56577 14.6925 6.50705 14.7478C6.46048 14.7952 6.46048 14.7952 6.41297 14.8435C6.33804 14.9112 6.33804 14.9112 6.25353 14.9112C6.23261 14.9719 6.23261 14.9719 6.21127 15.0337C5.91246 15.3083 5.64435 15.4587 5.23944 15.524C5.2255 15.5509 5.21156 15.5779 5.19719 15.6057C4.71234 15.4765 4.31394 15.3443 4.01063 14.9391C3.97184 14.8703 3.97184 14.8703 3.97184 14.7478C3.94395 14.7343 3.91606 14.7208 3.88733 14.7069C3.80111 14.408 3.8485 14.09 3.97184 13.8082C4.1776 13.4826 4.43818 13.2154 4.71606 12.9469C4.75916 12.9049 4.80225 12.863 4.84533 12.821C4.93507 12.7337 5.02505 12.6466 5.11519 12.5597C5.22984 12.4491 5.34369 12.3378 5.45736 12.2262C5.54591 12.1395 5.63496 12.0533 5.72414 11.9673C5.7663 11.9264 5.8083 11.8854 5.85011 11.8443C6.45899 11.2461 7.12775 10.9689 7.85916 11.5613Z" fill="#2843FE"/>
<path d="M13.6479 13.3179C13.9036 13.3009 14.0354 13.3137 14.2394 13.4813C14.2394 13.5083 14.2394 13.5353 14.2394 13.5631C14.2813 13.5765 14.3231 13.59 14.3662 13.6039C14.3662 13.6309 14.3662 13.6578 14.3662 13.6856C14.3906 13.6949 14.415 13.7041 14.4401 13.7137C14.5591 13.7808 14.6209 13.8668 14.7042 13.9716C14.7321 13.9851 14.76 13.9985 14.7887 14.0124C14.7887 14.0394 14.7887 14.0664 14.7887 14.0941C14.8306 14.1076 14.8724 14.1211 14.9155 14.135C14.9729 14.1929 14.9729 14.1929 15.0317 14.2652C15.1454 14.3995 15.2684 14.5071 15.409 14.6145C15.4274 14.6315 15.4458 14.6485 15.4648 14.6661C15.4648 14.693 15.4648 14.72 15.4648 14.7478C15.4909 14.7579 15.5171 14.768 15.544 14.7784C15.6502 14.8388 15.666 14.8883 15.7183 14.9929C15.7601 15.0064 15.802 15.0199 15.8451 15.0337C15.8451 15.0607 15.8451 15.0877 15.8451 15.1154C15.882 15.1312 15.882 15.1312 15.9197 15.1474C16.0217 15.2012 16.0909 15.2605 16.1725 15.3401C16.2114 15.3774 16.2114 15.3774 16.2511 15.4155C16.3099 15.4831 16.3099 15.4831 16.3099 15.5648C16.3377 15.5648 16.3656 15.5648 16.3944 15.5648C16.3944 15.5918 16.3944 15.6188 16.3944 15.6465C16.4223 15.6465 16.4501 15.6465 16.4789 15.6465C16.5352 15.7146 16.5916 15.7827 16.6479 15.8508C16.7317 15.9197 16.8162 15.9878 16.9014 16.0551C17.0214 16.1653 17.131 16.2795 17.2368 16.4023C17.321 16.4994 17.4064 16.5812 17.5088 16.6602C17.5454 16.6897 17.582 16.7192 17.6197 16.7496C17.6197 16.7765 17.6197 16.8035 17.6197 16.8313C17.6825 16.8515 17.6825 16.8515 17.7465 16.8721C17.7465 16.8991 17.7465 16.926 17.7465 16.9538C17.8092 16.974 17.8092 16.974 17.8732 16.9947C17.8732 17.0216 17.8732 17.0486 17.8732 17.0764C17.9011 17.0764 17.929 17.0764 17.9577 17.0764C17.9577 17.1033 17.9577 17.1303 17.9577 17.1581C17.9825 17.1681 18.0072 17.1782 18.0327 17.1886C18.1413 17.2477 18.2009 17.313 18.2799 17.4057C18.3784 17.5249 18.3784 17.5249 18.507 17.6075C18.507 17.6344 18.507 17.6614 18.507 17.6892C18.5349 17.6892 18.5628 17.6892 18.5915 17.6892C18.662 17.7572 18.7324 17.8253 18.8028 17.8934C19.0629 18.0935 19.3549 18.158 19.6854 18.1491C19.94 18.119 20.1668 18.0513 20.3662 17.8934C20.3941 17.9069 20.422 17.9204 20.4507 17.9343C20.081 18.2059 19.7742 18.2578 19.3099 18.2202C18.9284 18.1488 18.6906 17.9501 18.4225 17.6892C18.3921 17.6612 18.3618 17.6333 18.3304 17.6046C18.1811 17.466 18.1811 17.466 18.1268 17.4032C18.1268 17.3762 18.1268 17.3493 18.1268 17.3215C18.1023 17.3112 18.0779 17.3009 18.0527 17.2902C17.946 17.2336 17.8761 17.1701 17.7908 17.0863C17.7581 17.0543 17.7253 17.0223 17.6916 16.9894C17.656 16.9543 17.6205 16.9192 17.5839 16.883C17.5259 16.8263 17.468 16.7696 17.4101 16.7129C17.3479 16.652 17.2858 16.591 17.2238 16.53C17.0942 16.4027 16.9642 16.2758 16.8342 16.149C16.4644 15.7883 16.0948 15.4274 15.7265 15.0654C15.523 14.8654 15.3189 14.6659 15.1143 14.467C15.0061 14.3618 14.8982 14.2563 14.791 14.1502C14.6712 14.0318 14.5504 13.9145 14.4294 13.7972C14.3943 13.7621 14.3592 13.727 14.323 13.6909C14.1048 13.4817 13.9551 13.3933 13.6479 13.3588C13.6479 13.3453 13.6479 13.3318 13.6479 13.3179Z" fill="#3C85EC"/>
<path d="M16.1778 5.69893C16.2213 5.69766 16.2647 5.6964 16.3095 5.6951C16.4736 5.72641 16.5373 5.81077 16.6479 5.92362C16.7025 5.97665 16.7572 6.02954 16.812 6.08232C17.5179 6.76477 18.2237 7.44721 18.9296 8.12966C18.9619 8.16085 18.9941 8.19203 19.0274 8.22417C19.133 8.32629 19.2382 8.42868 19.3434 8.53116C19.4193 8.605 19.4953 8.67883 19.5713 8.75266C19.6293 8.80922 19.6293 8.80922 19.6884 8.86692C19.7253 8.90273 19.7622 8.93854 19.8002 8.97543C19.8506 9.02451 19.8506 9.02451 19.9021 9.07457C19.9802 9.15311 19.9802 9.15311 20.0704 9.19182C20.0704 9.21879 20.0704 9.24575 20.0704 9.27353C20.1027 9.2828 20.1349 9.29207 20.1681 9.30162C20.3089 9.36809 20.3295 9.4304 20.4084 9.5595C20.4529 9.59922 20.4989 9.6374 20.5458 9.6744C20.6565 9.76221 20.7514 9.85237 20.8442 9.95781C21.091 10.2378 21.3615 10.4956 21.6533 10.7316C21.752 10.8128 21.8419 10.8969 21.9296 10.9893C21.9296 11.0163 21.9296 11.0433 21.9296 11.071C21.9714 11.0845 22.0132 11.098 22.0563 11.1119C22.0563 11.1389 22.0563 11.1658 22.0563 11.1936C22.0284 11.1936 22.0006 11.1936 21.9718 11.1936C21.9718 11.1666 21.9718 11.1397 21.9718 11.1119C21.93 11.0984 21.8882 11.0849 21.8451 11.071C21.8451 11.0441 21.8451 11.0171 21.8451 10.9893C21.8189 10.9792 21.7928 10.9691 21.7658 10.9587C21.659 10.8979 21.6457 10.8489 21.5915 10.7442C21.5666 10.7325 21.5416 10.7209 21.5159 10.7088C21.4016 10.6521 21.329 10.5816 21.2386 10.4933C21.2026 10.4584 21.1667 10.4235 21.1296 10.3875C21.0911 10.3498 21.0527 10.312 21.013 10.2731C20.9729 10.234 20.9327 10.195 20.8925 10.1559C20.7868 10.0532 20.6814 9.95033 20.5761 9.84735C20.4074 9.68248 20.2384 9.51789 20.0693 9.35342C20.0103 9.296 19.9515 9.23842 19.8927 9.18085C19.8568 9.14595 19.821 9.11105 19.7841 9.07509C19.7369 9.02892 19.7369 9.02892 19.6887 8.98182C19.603 8.89921 19.603 8.89921 19.4789 8.82415C19.4384 8.78171 19.3994 8.73794 19.3616 8.69324C19.2306 8.54235 19.0912 8.40243 18.9471 8.26326C18.9206 8.23745 18.894 8.21164 18.8667 8.18504C18.7798 8.10067 18.6928 8.01646 18.6057 7.93226C18.5449 7.87333 18.4841 7.8144 18.4233 7.75546C18.2963 7.63243 18.1692 7.50948 18.0421 7.38658C17.8791 7.22904 17.7165 7.07122 17.5539 6.91333C17.4286 6.79176 17.3032 6.67037 17.1776 6.54903C17.1176 6.4909 17.0576 6.4327 16.9976 6.37444C16.914 6.29318 16.8301 6.21219 16.7461 6.13126C16.7091 6.09513 16.7091 6.09513 16.6714 6.05827C16.5039 5.89756 16.4017 5.8059 16.1646 5.7934C16.0385 5.79982 15.9252 5.81323 15.8028 5.84191C15.9122 5.70478 16.0035 5.70061 16.1778 5.69893Z" fill="#3883EB"/>
<path d="M16.2254 10.8668C16.4905 10.868 16.6459 10.9092 16.8377 11.0891C16.8587 11.1101 16.8798 11.1311 16.9014 11.1528C16.9354 11.1831 16.9694 11.2134 17.0044 11.2447C17.0704 11.3162 17.0704 11.3162 17.0704 11.3979C17.0983 11.3979 17.1262 11.3979 17.1549 11.3979C17.1549 11.4248 17.1549 11.4518 17.1549 11.4796C17.1828 11.4796 17.2107 11.4796 17.2394 11.4796C17.2957 11.535 17.2957 11.535 17.3583 11.6098C17.4968 11.771 17.6379 11.9201 17.8099 12.049C17.9099 12.1288 17.9847 12.2136 18.0654 12.3112C18.1626 12.4175 18.2744 12.5065 18.3857 12.5987C18.4733 12.6714 18.5571 12.7443 18.6338 12.8277C18.6338 12.8547 18.6338 12.8816 18.6338 12.9094C18.6756 12.9229 18.7175 12.9364 18.7606 12.9503C18.8336 13.0168 18.9026 13.0845 18.9718 13.1545C19.0298 13.2108 19.0879 13.267 19.1461 13.3231C19.2007 13.3758 19.2553 13.4286 19.3099 13.4814C19.3342 13.5032 19.3584 13.525 19.3835 13.5474C19.4366 13.6039 19.4366 13.6039 19.4366 13.6856C19.4645 13.6856 19.4924 13.6856 19.5211 13.6856C19.5211 13.7126 19.5211 13.7395 19.5211 13.7673C19.5839 13.7875 19.5839 13.7875 19.6479 13.8082C19.6714 13.8368 19.695 13.8655 19.7192 13.895C19.802 13.9946 19.878 14.0662 19.978 14.1478C20.1288 14.2718 20.2553 14.4059 20.3827 14.552C20.4668 14.6426 20.5633 14.7135 20.662 14.7886C20.662 14.8156 20.662 14.8426 20.662 14.8703C20.6855 14.8788 20.709 14.8872 20.7333 14.8959C20.8414 14.958 20.8969 15.0326 20.9738 15.1269C21.088 15.2441 21.2255 15.3279 21.3633 15.4172C21.4559 15.4774 21.5452 15.5402 21.6338 15.6057C21.1732 15.5581 20.7895 15.1124 20.493 14.7886C20.493 14.7617 20.493 14.7347 20.493 14.7069C20.456 14.6912 20.456 14.6912 20.4184 14.6752C20.315 14.6205 20.2476 14.5608 20.165 14.4797C20.1186 14.4345 20.1186 14.4345 20.0712 14.3883C20.0376 14.3551 20.004 14.322 19.9695 14.2879C19.9338 14.253 19.8981 14.2181 19.8613 14.1822C19.7636 14.0866 19.666 13.9908 19.5685 13.895C19.4662 13.7947 19.3635 13.6946 19.2608 13.5946C18.9112 13.2539 18.562 12.9128 18.2137 12.5709C18.0212 12.382 17.8283 12.1936 17.6349 12.0056C17.5327 11.9062 17.4307 11.8066 17.3293 11.7064C17.2159 11.5947 17.1018 11.4837 16.9875 11.3728C16.9543 11.3398 16.9212 11.3067 16.887 11.2727C16.6827 11.0765 16.5083 10.9675 16.2254 10.9076C16.2254 10.8942 16.2254 10.8807 16.2254 10.8668Z" fill="#2843FE"/>
<path d="M13.3521 13.6448C13.3626 13.6667 13.373 13.6886 13.3838 13.7111C13.5004 13.9254 13.6422 14.0988 13.8193 14.2691C13.84 14.2892 13.8607 14.3092 13.882 14.3298C13.9498 14.3953 14.018 14.4606 14.0861 14.5258C14.1337 14.5717 14.1813 14.6175 14.2288 14.6634C14.3536 14.7838 14.4787 14.9039 14.6039 15.024C14.7308 15.1459 14.8575 15.2681 14.9842 15.3902C15.2075 15.6052 15.4309 15.8201 15.6545 16.0348C15.7274 16.1049 15.8002 16.1751 15.8728 16.2454C15.943 16.3132 16.0138 16.3805 16.0849 16.4475C16.1217 16.4823 16.1584 16.5171 16.1963 16.553C16.2523 16.6056 16.2523 16.6056 16.3094 16.6594C16.3944 16.7496 16.3944 16.7496 16.3944 16.8313C16.419 16.8419 16.4437 16.8525 16.4692 16.8635C16.5699 16.9164 16.6374 16.9737 16.7188 17.0514C16.7486 17.0797 16.7784 17.1079 16.809 17.137C16.8408 17.1676 16.8725 17.1982 16.9052 17.2297C16.9382 17.2614 16.9712 17.293 17.0053 17.3257C17.0751 17.3928 17.1448 17.46 17.2144 17.5273C17.3203 17.6295 17.4269 17.731 17.5335 17.8325C17.6014 17.898 17.6692 17.9634 17.7371 18.0289C17.7687 18.0589 17.8004 18.0889 17.833 18.1199C18.287 18.5627 18.287 18.5627 18.301 18.8644C18.2993 18.8945 18.2976 18.9246 18.2958 18.9556C18.2311 18.8617 18.185 18.781 18.1373 18.6798C18.0023 18.4159 17.8136 18.2383 17.5775 18.0568C17.5062 17.9758 17.4358 17.8941 17.3662 17.8117C17.2566 17.7008 17.1603 17.6109 17.0282 17.5258C17.0282 17.4988 17.0282 17.4718 17.0282 17.444C17.0046 17.4356 16.9811 17.4272 16.9569 17.4185C16.8481 17.356 16.786 17.2803 16.7086 17.1849C16.6195 17.0856 16.5157 17.0066 16.4094 16.9251C16.3905 16.9076 16.3716 16.8901 16.3521 16.8721C16.3521 16.8452 16.3521 16.8182 16.3521 16.7904C16.3242 16.7904 16.2963 16.7904 16.2676 16.7904C16.1118 16.652 15.9803 16.4979 15.8451 16.341C15.7327 16.2267 15.6166 16.1223 15.4912 16.0219C15.3517 15.9083 15.2376 15.7821 15.1202 15.6477C15.0122 15.5329 14.8919 15.4358 14.7678 15.3379C14.7468 15.3184 14.7258 15.2989 14.7042 15.2789C14.7042 15.2519 14.7042 15.2249 14.7042 15.1972C14.666 15.181 14.666 15.181 14.627 15.1644C14.5308 15.1131 14.4859 15.0683 14.419 14.9852C14.3267 14.8765 14.232 14.7845 14.1206 14.6942C13.9479 14.5525 13.8002 14.3948 13.6512 14.2303C13.5655 14.1341 13.5655 14.1341 13.4696 14.0518C13.3498 13.9241 13.3637 13.8132 13.3521 13.6448Z" fill="#3A84EC"/>
<path d="M16.1831 6.61812C16.1831 6.64508 16.1831 6.67204 16.1831 6.69982C16.2075 6.70909 16.2319 6.71836 16.257 6.72791C16.376 6.79503 16.44 6.87938 16.5211 6.98579C16.3963 6.92976 16.2913 6.8637 16.1831 6.78153C15.9498 6.87697 15.7823 7.03706 15.6338 7.23091C15.6059 7.23091 15.578 7.23091 15.5493 7.23091C15.5493 7.25787 15.5493 7.28483 15.5493 7.31261C15.5214 7.31261 15.4935 7.31261 15.4648 7.31261C15.4648 7.33957 15.4648 7.36654 15.4648 7.39432C15.4369 7.39432 15.409 7.39432 15.3803 7.39432C15.3803 7.42128 15.3803 7.44824 15.3803 7.47602C15.3257 7.52789 15.3257 7.52789 15.2456 7.59092C14.9791 7.80914 14.738 8.05288 14.493 8.29307C14.4651 8.27959 14.4372 8.26611 14.4085 8.25222C15.7935 6.91309 15.7935 6.91309 15.8654 6.84389C15.9202 6.79068 15.9738 6.73642 16.0273 6.68196C16.0986 6.61812 16.0986 6.61812 16.1831 6.61812ZM14.3239 8.29307C14.3518 8.29307 14.3797 8.29307 14.4085 8.29307C14.3505 8.41774 14.2834 8.50748 14.1863 8.60649C14.1599 8.63361 14.1335 8.66073 14.1062 8.68867C14.0787 8.71653 14.0512 8.74439 14.0229 8.77309C13.9951 8.80158 13.9672 8.83007 13.9385 8.85942C13.87 8.92954 13.8013 8.99948 13.7324 9.06927C13.7045 9.05579 13.6766 9.04231 13.6479 9.02842C13.6479 9.00146 13.6479 8.97449 13.6479 8.94671C13.7085 8.89628 13.7694 8.84608 13.8318 8.79767C13.9801 8.68008 14.1065 8.54704 14.2262 8.40287C14.2746 8.34852 14.2746 8.34852 14.3239 8.29307Z" fill="#3686EC"/>
<path d="M13.1409 18.4654C13.1687 18.4788 13.1966 18.4923 13.2254 18.5062C12.9136 18.8077 12.6018 19.1091 12.29 19.4106C12.2596 19.4399 12.2596 19.4399 12.2287 19.4699C12.1697 19.5268 12.1106 19.5837 12.0516 19.6405C11.978 19.7121 11.9113 19.7829 11.8468 19.862C11.7465 19.9769 11.7465 19.9769 11.6197 20.0586C11.6014 20.0965 11.5831 20.1344 11.5643 20.1735C11.4762 20.3344 11.3911 20.4019 11.2394 20.508C11.2116 20.508 11.1837 20.508 11.1549 20.508C11.1436 20.5324 11.1323 20.5569 11.1206 20.582C11.0705 20.6713 11.0241 20.7291 10.9437 20.794C10.9158 20.794 10.8879 20.794 10.8592 20.794C11.0358 20.4046 11.4515 20.093 11.7585 19.7979C11.7987 19.7591 11.8389 19.7203 11.8791 19.6815C11.9834 19.5808 12.0878 19.4802 12.1923 19.3797C12.2995 19.2765 12.4065 19.1732 12.5136 19.0699C12.7225 18.8682 12.9317 18.6668 13.1409 18.4654Z" fill="#3B83E9"/>
<path d="M21.7606 12.0107C21.973 12.1371 22.1431 12.2856 22.3194 12.4556C22.3477 12.4827 22.3761 12.5098 22.4052 12.5377C22.4648 12.5949 22.5242 12.6521 22.5836 12.7095C22.6739 12.7967 22.7648 12.8831 22.8558 12.9696C22.9139 13.0254 22.9719 13.0813 23.0298 13.1373C23.0568 13.1628 23.0838 13.1883 23.1116 13.2146C23.4141 13.5101 23.5704 13.8545 23.5933 14.2703C23.5884 14.4967 23.5108 14.7089 23.4084 14.9112C23.3666 14.9314 23.3666 14.9314 23.3239 14.952C23.3377 14.9178 23.3377 14.9178 23.3517 14.8828C23.5015 14.4655 23.5189 14.0487 23.3228 13.6443C23.3092 13.6175 23.2957 13.5907 23.2817 13.563C23.2677 13.5226 23.2538 13.4822 23.2394 13.4405C23.2115 13.4405 23.1837 13.4405 23.1549 13.4405C23.0909 13.3762 23.0909 13.3762 23.0176 13.2898C22.9255 13.1847 22.8362 13.0896 22.7245 13.0039C22.6056 12.9094 22.6056 12.9094 22.5264 12.8124C22.4194 12.6846 22.2975 12.5867 22.1666 12.4825C22.1441 12.4616 22.1217 12.4407 22.0986 12.4192C22.0986 12.3922 22.0986 12.3653 22.0986 12.3375C22.0707 12.3375 22.0428 12.3375 22.0141 12.3375C21.9454 12.2813 21.9454 12.2813 21.8873 12.2149C21.8873 12.188 21.8873 12.161 21.8873 12.1332C21.8455 12.1197 21.8037 12.1062 21.7606 12.0924C21.7606 12.0654 21.7606 12.0384 21.7606 12.0107Z" fill="#3B86E9"/>
<path d="M15.9296 11.4796C16.1789 11.6779 16.4064 11.8949 16.6336 12.1163C16.701 12.182 16.7686 12.2476 16.8362 12.3132C16.9795 12.4522 17.1227 12.5914 17.2658 12.7307C17.4322 12.8925 17.5986 13.0542 17.7651 13.2157C17.8314 13.2801 17.8976 13.3445 17.9638 13.409C18.0046 13.4487 18.0455 13.4884 18.0864 13.528C18.1396 13.5797 18.1396 13.5797 18.1938 13.6325C18.2953 13.7292 18.2953 13.7292 18.4145 13.8155C18.445 13.84 18.4756 13.8646 18.507 13.8899C18.507 13.9168 18.507 13.9438 18.507 13.9716C18.3684 13.913 18.2776 13.8411 18.1718 13.7372C18.1409 13.707 18.11 13.6769 18.0782 13.6458C18.0463 13.6143 18.0144 13.5828 17.9815 13.5503C17.9498 13.5192 17.9181 13.4882 17.8854 13.4562C17.8239 13.396 17.7625 13.3358 17.7012 13.2755C17.6345 13.2099 17.5676 13.1446 17.5002 13.0797C17.4449 13.0263 17.3897 12.9727 17.335 12.9187C17.1767 12.7629 17.0121 12.6191 16.8382 12.4797C16.8172 12.4597 16.7963 12.4397 16.7747 12.4192C16.7747 12.3922 16.7747 12.3653 16.7747 12.3375C16.7328 12.324 16.691 12.3105 16.6479 12.2966C16.5756 12.2303 16.5053 12.162 16.4366 12.0924C16.3883 12.0481 16.3883 12.0481 16.3389 12.003C16.2676 11.9289 16.2676 11.9289 16.2676 11.8472C16.2432 11.838 16.2188 11.8287 16.1937 11.8192C16.0734 11.7513 16.009 11.671 15.9296 11.5613C15.9296 11.5343 15.9296 11.5073 15.9296 11.4796Z" fill="#3883EC"/>
<path d="M17.493 0.653645C17.2496 0.764443 17.006 0.867462 16.7535 0.957486C15.9809 1.24276 15.2364 1.75241 14.662 2.3286C14.6341 2.31512 14.6062 2.30164 14.5775 2.28775C15.1651 1.65029 16.2245 0.87216 17.1127 0.694497C17.1475 0.679331 17.1824 0.664164 17.2183 0.648538C17.3361 0.608677 17.3771 0.619945 17.493 0.653645Z" fill="#3B81E6"/>
<path d="M16.5211 7.02664C16.674 7.0891 16.7713 7.1769 16.8878 7.29013C16.9267 7.32775 16.9656 7.36536 17.0056 7.40412C17.0477 7.44521 17.0898 7.48631 17.1318 7.52741C17.1751 7.56944 17.2185 7.61145 17.2618 7.65345C17.3757 7.76382 17.4892 7.87443 17.6028 7.98509C17.7187 8.09806 17.835 8.2108 17.9512 8.32355C18.1789 8.54466 18.4065 8.76603 18.6338 8.98757C18.507 8.98757 18.507 8.98757 18.3952 8.8933C18.3504 8.84998 18.3059 8.80632 18.2618 8.7624C18.2381 8.73931 18.2144 8.71621 18.19 8.69242C18.114 8.61831 18.0385 8.54379 17.963 8.46925C17.9125 8.41978 17.8619 8.37033 17.8114 8.32092C17.7178 8.22948 17.6244 8.13788 17.5313 8.04609C17.2867 7.80501 17.2867 7.80501 17.0282 7.57815C16.8956 7.46673 16.7665 7.35632 16.6479 7.2309C16.6479 7.20394 16.6479 7.17698 16.6479 7.1492C16.6061 7.13572 16.5642 7.12224 16.5211 7.10835C16.5211 7.08138 16.5211 7.05442 16.5211 7.02664Z" fill="#3983EB"/>
<path d="M19.2253 14.6661C19.2532 14.6661 19.2811 14.6661 19.3099 14.6661C19.3099 14.693 19.3099 14.72 19.3099 14.7478C19.3322 14.7562 19.3546 14.7646 19.3777 14.7733C19.5209 14.8528 19.6295 14.9626 19.7453 15.0748C19.7707 15.0992 19.7961 15.1236 19.8223 15.1487C19.876 15.2004 19.9296 15.2522 19.9832 15.3042C20.0642 15.3826 20.1458 15.4605 20.2274 15.5384C20.8148 16.1033 20.8148 16.1033 20.9155 16.341C20.9015 16.3815 20.8876 16.4219 20.8732 16.4636C20.8317 16.405 20.7904 16.3462 20.7491 16.2874C20.7261 16.2547 20.703 16.222 20.6793 16.1883C20.6197 16.0959 20.6197 16.0959 20.5775 15.9734C20.5531 15.9624 20.5287 15.9515 20.5035 15.9402C20.367 15.8705 20.2937 15.7614 20.1972 15.6465C20.1553 15.6196 20.1135 15.5926 20.0704 15.5648C20.0704 15.5379 20.0704 15.5109 20.0704 15.4831C20.0286 15.4696 19.9868 15.4562 19.9437 15.4423C19.9097 15.4027 19.8757 15.3631 19.8407 15.3223C19.7461 15.213 19.6975 15.1635 19.5634 15.1155C19.5634 15.075 19.5634 15.0346 19.5634 14.9929C19.5076 14.9659 19.4518 14.939 19.3944 14.9112C19.3944 14.8842 19.3944 14.8573 19.3944 14.8295C19.3386 14.8025 19.2828 14.7756 19.2253 14.7478C19.2253 14.7208 19.2253 14.6939 19.2253 14.6661Z" fill="#2843FE"/>
<path d="M6.59155 11.3979C6.56453 11.4021 6.53752 11.4063 6.50968 11.4106C6.48093 11.4199 6.45217 11.4292 6.42254 11.4387C6.40859 11.4792 6.39465 11.5196 6.38028 11.5613C6.32069 11.6113 6.25853 11.6585 6.19542 11.7043C5.94761 11.8951 5.72451 12.1054 5.50088 12.3222C5.46657 12.3553 5.43227 12.3885 5.39692 12.4226C5.22776 12.5876 5.06435 12.7539 4.91283 12.9343C4.83636 13.0153 4.7486 13.065 4.64789 13.1137C4.70682 12.9852 4.77586 12.8979 4.87827 12.7987C4.90804 12.7696 4.9378 12.7406 4.96847 12.7107C5.00064 12.6797 5.03282 12.6488 5.06597 12.6169C5.09911 12.5848 5.13225 12.5527 5.1664 12.5196C5.23652 12.4517 5.30674 12.384 5.37706 12.3163C5.48448 12.2129 5.59144 12.1091 5.69837 12.0052C5.76659 11.9392 5.83484 11.8734 5.90311 11.8075C5.95099 11.761 5.95099 11.761 5.99983 11.7135C6.39522 11.3346 6.39522 11.3346 6.59155 11.3979Z" fill="#3A84EB"/>
<path d="M14.3239 2.53285C14.3239 2.65541 14.3239 2.65541 14.2251 2.76423C14.1797 2.80779 14.134 2.85102 14.0881 2.89398C14.052 2.9285 14.052 2.9285 14.0151 2.96372C13.9379 3.03742 13.8602 3.1107 13.7826 3.18394C13.7054 3.2571 13.6283 3.33035 13.5514 3.40372C13.5035 3.44937 13.4554 3.49489 13.4072 3.54026C13.3148 3.62797 13.2284 3.71358 13.1515 3.81453C13.1253 3.84743 13.1253 3.84743 13.0986 3.88099C13.0707 3.88099 13.0428 3.88099 13.0141 3.88099C13.0141 3.90795 13.0141 3.93491 13.0141 3.96269C12.9461 4.02605 12.9461 4.02605 12.8556 4.09802C12.7217 4.2074 12.6161 4.32009 12.507 4.45292C12.4443 4.47315 12.4443 4.47315 12.3803 4.49378C12.4439 4.34947 12.5304 4.25699 12.645 4.14681C12.6823 4.11083 12.7195 4.07486 12.7578 4.03779C12.7985 3.99892 12.8391 3.96006 12.8797 3.9212C12.9213 3.88115 12.9629 3.84108 13.0044 3.801C13.1136 3.69578 13.223 3.59081 13.3324 3.48589C13.4442 3.37868 13.5557 3.27125 13.6672 3.16383C13.8859 2.95328 14.1048 2.74298 14.3239 2.53285Z" fill="#3881E7"/>
<path d="M4.01408 14.8295C4.22007 15.0184 4.22007 15.0184 4.2676 15.1563C4.29549 15.1563 4.32338 15.1563 4.35211 15.1563C4.35211 15.1833 4.35211 15.2102 4.35211 15.238C4.43641 15.2658 4.52097 15.2929 4.60563 15.3197C4.67304 15.3414 4.67304 15.3414 4.7418 15.3634C4.91071 15.4036 5.06205 15.4117 5.23415 15.4014C5.26369 15.3998 5.29322 15.3981 5.32364 15.3964C5.55766 15.3764 5.70762 15.3116 5.88595 15.1676C5.95775 15.1155 5.95775 15.1155 6.08451 15.1155C5.82456 15.3515 5.5947 15.4667 5.23944 15.524C5.22549 15.5509 5.21155 15.5779 5.19718 15.6057C4.7121 15.4764 4.28173 15.3521 4.01408 14.9112C4.01408 14.8842 4.01408 14.8573 4.01408 14.8295Z" fill="#3C89E7"/>
<path d="M12.1268 15.9734C12.4085 16.005 12.5764 16.1859 12.7606 16.3819C12.9573 16.6778 13.0553 16.9698 13.0141 17.3215C12.9482 17.55 12.8868 17.7199 12.6761 17.8526C12.6874 17.8324 12.6987 17.8121 12.7104 17.7913C12.8769 17.4524 12.9618 17.1451 12.8596 16.7705C12.716 16.424 12.4704 16.177 12.1268 16.0142C12.1268 16.0007 12.1268 15.9872 12.1268 15.9734Z" fill="#3C82EA"/>
<path d="M9.33803 8.74245C9.43868 8.8345 9.51809 8.93297 9.59947 9.04118C9.90745 9.42315 10.3148 9.63874 10.8148 9.70376C10.9565 9.71374 11.0973 9.72064 11.2394 9.72291C11.0781 9.82691 10.961 9.82713 10.7746 9.80461C10.21 9.68205 9.74258 9.43809 9.40405 8.97735C9.33803 8.865 9.33803 8.865 9.33803 8.74245Z" fill="#2843FE"/>
<path d="M2.15492 11.7655C2.29998 11.875 2.42473 11.9841 2.54313 12.1204C2.81708 12.4297 3.16118 12.7775 3.54929 12.9503C3.59112 12.9368 3.63295 12.9233 3.67605 12.9094C3.67605 12.8824 3.67605 12.8555 3.67605 12.8277C3.70394 12.8277 3.73182 12.8277 3.76056 12.8277C3.7183 12.9094 3.67605 12.9911 3.6338 13.0728C3.14177 12.9992 2.51946 12.2636 2.20031 11.9095C2.15492 11.8472 2.15492 11.8472 2.15492 11.7655Z" fill="#3F86E8"/>
<path d="M15.169 6.45471C15.1064 6.6005 15.0233 6.67942 14.9 6.78137C14.6385 7.0033 14.3945 7.23985 14.1497 7.47858C14.1048 7.52218 14.0599 7.56577 14.015 7.60936C13.9066 7.71459 13.7983 7.81996 13.6901 7.9254C13.6623 7.91192 13.6344 7.89844 13.6056 7.88455C13.7472 7.70918 13.8988 7.56592 14.0736 7.42145C14.2083 7.30888 14.3324 7.19394 14.4375 7.05473C14.465 7.02061 14.465 7.02061 14.493 6.9858C14.5208 6.9858 14.5487 6.9858 14.5775 6.9858C14.5775 6.95883 14.5775 6.93187 14.5775 6.90409C14.6347 6.84967 14.6347 6.84967 14.7122 6.78919C14.811 6.71046 14.9038 6.63122 14.9921 6.54152C15.0845 6.45471 15.0845 6.45471 15.169 6.45471Z" fill="#3B83EB"/>
<path d="M6.42253 17.3623C6.44056 17.3781 6.45859 17.3939 6.47716 17.4102C6.74266 17.624 7.05817 17.7576 7.40691 17.776C7.59488 17.7585 7.77308 17.6933 7.94861 17.6288C8.02816 17.6075 8.02816 17.6075 8.11267 17.6483C7.76076 17.8511 7.43574 17.9231 7.02415 17.8246C6.79223 17.7419 6.5857 17.6269 6.42253 17.444C6.42253 17.4171 6.42253 17.3901 6.42253 17.3623Z" fill="#4083E6"/>
<path d="M15.8028 18.9964C15.8307 19.0234 15.8586 19.0504 15.8873 19.0781C15.887 19.1622 15.8861 19.2463 15.8818 19.3303C15.8555 19.6883 15.8555 19.6883 15.993 20.0101C16.1337 20.152 16.3018 20.2504 16.4789 20.3446C16.5207 20.3715 16.5625 20.3985 16.6056 20.4263C16.3479 20.4138 16.2013 20.2981 16.0141 20.1403C15.9879 20.1197 15.9617 20.099 15.9347 20.0778C15.8168 19.9698 15.763 19.8999 15.7545 19.7401C15.7659 19.6138 15.7842 19.4896 15.8028 19.3641C15.8069 19.2412 15.8049 19.1195 15.8028 18.9964Z" fill="#3C83E6"/>
<path d="M14.662 17.6483C15.1818 17.8298 15.5065 18.1967 15.7394 18.6671C15.8087 18.8159 15.8087 18.8159 15.7606 18.9556C15.7426 18.9181 15.7247 18.8806 15.7063 18.842C15.4727 18.3643 15.2093 18.0711 14.7625 17.7621C14.7293 17.738 14.6961 17.714 14.662 17.6892C14.662 17.6757 14.662 17.6622 14.662 17.6483Z" fill="#3D83EB"/>
<path d="M8.3662 13.8899C8.39408 13.9034 8.42197 13.9168 8.4507 13.9307C8.22165 14.1879 7.98862 14.4272 7.72001 14.6461C7.65378 14.702 7.59118 14.7618 7.52905 14.8218C7.43662 14.9112 7.43662 14.9112 7.35211 14.952C7.41907 14.7942 7.52364 14.6951 7.64822 14.5761C7.66873 14.5564 7.68924 14.5366 7.71038 14.5163C7.77562 14.4537 7.84115 14.3914 7.90669 14.329C7.95111 14.2865 7.99551 14.244 8.03989 14.2014C8.14844 14.0973 8.25724 13.9935 8.3662 13.8899Z" fill="#2843FE"/>
<path d="M11.9155 4.86145C11.9434 4.87493 11.9713 4.88841 12 4.9023C11.9552 4.9526 11.9103 5.00279 11.8653 5.05295C11.8403 5.08091 11.8153 5.10887 11.7896 5.13768C11.6185 5.321 11.4332 5.48917 11.2447 5.65552C11.2116 5.68485 11.2116 5.68485 11.1777 5.71478C11.0179 5.85573 10.8557 5.99327 10.6901 6.12788C10.76 5.95259 10.8968 5.83607 11.0325 5.70723C11.0577 5.68297 11.0829 5.65872 11.1088 5.63374C11.1891 5.55655 11.2697 5.47964 11.3504 5.40275C11.4049 5.35037 11.4595 5.29797 11.5141 5.24556C11.6477 5.11731 11.7815 4.98931 11.9155 4.86145Z" fill="#3A80EA"/>
<path d="M13.2254 9.35524C13.2532 9.36872 13.2811 9.3822 13.3099 9.39609C12.9745 9.78618 12.5287 10.2555 12 10.3766C12 10.3496 12 10.3226 12 10.2948C12.0256 10.2844 12.0512 10.2739 12.0776 10.2631C12.5423 10.0578 12.8724 9.70388 13.2254 9.35524Z" fill="#3B85ED"/>
<path d="M9.92957 16.9538C9.94351 16.9943 9.95746 17.0347 9.97182 17.0764C9.73409 17.3415 9.4884 17.5849 9.21126 17.8117C9.19732 17.7713 9.18337 17.7308 9.16901 17.6892C9.2271 17.6279 9.2271 17.6279 9.29577 17.5666C9.32365 17.5666 9.35154 17.5666 9.38027 17.5666C9.38986 17.5439 9.39945 17.5211 9.40932 17.4977C9.51186 17.323 9.65207 17.1932 9.84506 17.1172C9.84506 17.0903 9.84506 17.0633 9.84506 17.0355C9.87295 17.0355 9.90084 17.0355 9.92957 17.0355C9.92957 17.0086 9.92957 16.9816 9.92957 16.9538Z" fill="#3987ED"/>
<path d="M9 12.0924C9.07909 12.2453 9.09465 12.2901 9.08979 12.4498C9.08903 12.4825 9.08826 12.5151 9.08748 12.5488C9.0865 12.5734 9.08552 12.5981 9.08451 12.6234C9.1368 12.6209 9.18908 12.6184 9.24296 12.6158C9.49638 12.6146 9.72959 12.6794 9.97183 12.746C9.82859 12.7922 9.73739 12.7771 9.59155 12.746C9.48866 12.7371 9.38565 12.7295 9.28257 12.723C9.18932 12.7171 9.09607 12.7112 9 12.7052C9 12.5029 9 12.3007 9 12.0924Z" fill="#3C83EA"/>
<path d="M14.7465 20.3037C14.7465 20.4263 14.7465 20.4263 14.6611 20.5227C14.6027 20.5782 14.6027 20.5782 14.5431 20.6349C14.5225 20.6546 14.5019 20.6744 14.4806 20.6948C14.4146 20.7579 14.3481 20.8206 14.2817 20.8833C14.2369 20.926 14.1921 20.9688 14.1473 21.0116C14.0375 21.1164 13.9273 21.2208 13.8169 21.325C13.789 21.3116 13.7611 21.2981 13.7324 21.2842C13.7603 21.2572 13.7882 21.2303 13.8169 21.2025C13.8291 21.1755 13.8413 21.1486 13.8539 21.1208C13.9014 21.0391 13.9014 21.0391 13.9785 21.0029C14.0862 20.9496 14.1529 20.8857 14.2368 20.8016C14.2807 20.758 14.2807 20.758 14.3256 20.7135C14.3529 20.6862 14.3803 20.6588 14.4084 20.6306C14.5775 20.4671 14.5775 20.4671 14.7465 20.3037Z" fill="#3E85E4"/>
<path d="M2.32394 2.3286C2.32394 2.49764 2.25446 2.53322 2.1338 2.65287C1.93914 2.85071 1.78571 3.05593 1.63484 3.28736C1.57439 3.37483 1.51685 3.44311 1.43661 3.51332C1.45712 3.32176 1.54772 3.20212 1.66901 3.05628C1.68772 3.03328 1.70642 3.01028 1.72569 2.98659C1.91344 2.75824 2.1105 2.53496 2.32394 2.3286Z" fill="#3981E4"/>
<path d="M6.59155 10.54C6.49282 10.6354 6.42548 10.6508 6.29313 10.6906C6.04095 10.7759 5.86241 10.9037 5.66197 11.071C5.61927 11.1039 5.57656 11.1368 5.53257 11.1706C5.49204 11.2022 5.49204 11.2022 5.4507 11.2345C5.43676 11.2075 5.42281 11.1805 5.40845 11.1528C5.47172 11.1035 5.53499 11.0543 5.59826 11.0051C5.67266 10.9435 5.67266 10.9435 5.74648 10.8259C5.84902 10.7711 5.94921 10.7222 6.05545 10.6753C6.08353 10.6622 6.11161 10.6491 6.14054 10.6356C6.29635 10.5657 6.41915 10.5229 6.59155 10.54Z" fill="#3A81E9"/>
<path d="M12.1268 1.92007C12.2939 1.98846 12.416 2.08886 12.5493 2.20604C12.5493 2.23301 12.5493 2.25997 12.5493 2.28775C12.5719 2.29617 12.5946 2.3046 12.618 2.31328C12.7606 2.39315 12.8579 2.49946 12.9718 2.61457C12.9579 2.64153 12.9439 2.66849 12.9296 2.69627C12.9017 2.69627 12.8738 2.69627 12.8451 2.69627C12.7977 2.63771 12.7977 2.63771 12.7421 2.55584C12.5971 2.35977 12.4164 2.22435 12.2195 2.0787C12.1889 2.05331 12.1583 2.02793 12.1268 2.00178C12.1268 1.97482 12.1268 1.94785 12.1268 1.92007Z" fill="#2843FE"/>
<path d="M10.6056 13.1545C10.9548 13.3027 11.1868 13.6814 11.3239 14.0124C11.31 14.0529 11.2961 14.0933 11.2817 14.135C11.2612 14.098 11.2407 14.0609 11.2196 14.0228C11.0603 13.7408 10.8998 13.4932 10.6677 13.2597C10.6056 13.1954 10.6056 13.1954 10.6056 13.1545Z" fill="#3880E8"/>
<path d="M9.25352 9.88632C9.42125 9.97603 9.58148 10.0698 9.73944 10.1748C9.89645 10.2777 10.0485 10.3519 10.2254 10.4174C10.0741 10.4662 10.0274 10.4366 9.88956 10.3702C9.86355 10.3571 9.83754 10.344 9.81074 10.3306C9.77247 10.3124 9.77247 10.3124 9.73342 10.2939C9.55195 10.2047 9.4025 10.1026 9.25352 9.96803C9.25352 9.94106 9.25352 9.9141 9.25352 9.88632Z" fill="#2843FE"/>
<path d="M12.9718 8.49733C12.9718 8.61989 12.9718 8.61989 12.8824 8.72122C12.8439 8.75772 12.8055 8.79421 12.7658 8.83181C12.7276 8.86862 12.6894 8.90543 12.65 8.94336C12.5493 9.02841 12.5493 9.02841 12.4648 9.02841C12.4769 8.8971 12.5112 8.86119 12.6128 8.76862C12.6555 8.73639 12.6981 8.70416 12.7421 8.67095C12.7848 8.6383 12.8276 8.60565 12.8716 8.57201C12.9047 8.54737 12.9378 8.52272 12.9718 8.49733Z" fill="#3D84ED"/>
<path d="M10.6901 16.3002C10.6244 16.4562 10.523 16.5559 10.3944 16.6679C10.3665 16.6679 10.3386 16.6679 10.3099 16.6679C10.3099 16.6948 10.3099 16.7218 10.3099 16.7496C10.2042 16.8159 10.2042 16.8159 10.0986 16.8721C10.1656 16.7146 10.2704 16.6134 10.3944 16.4942C10.4318 16.4578 10.4693 16.4213 10.5079 16.3838C10.6056 16.3002 10.6056 16.3002 10.6901 16.3002Z" fill="#2843FE"/>
<path d="M23.6197 12.7052C23.7445 12.7612 23.8496 12.8272 23.9577 12.9094C23.9577 12.869 23.9577 12.8285 23.9577 12.7869C24.0275 12.7869 24.0972 12.7869 24.169 12.7869C24.0993 12.8677 24.0296 12.9486 23.9577 13.032C23.9092 12.993 23.8608 12.9538 23.8125 12.9145C23.7855 12.8927 23.7586 12.8709 23.7308 12.8485C23.662 12.7869 23.662 12.7869 23.6197 12.7052Z" fill="#2843FE"/>
<path d="M12.0423 9.35524C12.0701 9.36872 12.098 9.3822 12.1268 9.39609C11.954 9.54693 11.7592 9.65975 11.5352 9.72291C11.439 9.7068 11.439 9.7068 11.3662 9.68206C11.4008 9.66874 11.4355 9.65541 11.4712 9.64169C11.5167 9.62383 11.5622 9.60598 11.6092 9.58759C11.6543 9.57005 11.6994 9.55252 11.7458 9.53445C11.8591 9.48409 11.9467 9.43171 12.0423 9.35524Z" fill="#2843FE"/>
<path d="M13.5211 7.96625C13.5211 8.08881 13.5211 8.08881 13.4379 8.1812C13.4026 8.21391 13.3673 8.24661 13.331 8.2803C13.2957 8.31332 13.2604 8.34634 13.224 8.38036C13.1966 8.40548 13.1691 8.4306 13.1408 8.45648C13.113 8.443 13.0851 8.42952 13.0563 8.41563C13.0864 8.39035 13.0864 8.39035 13.1171 8.36456C13.19 8.28563 13.207 8.23253 13.2253 8.12966C13.2506 8.12544 13.2759 8.12123 13.3019 8.11689C13.4063 8.08518 13.4502 8.04506 13.5211 7.96625Z" fill="#3984ED"/>
<path d="M10.5634 6.16873C10.5913 6.18221 10.6192 6.19569 10.6479 6.20958C10.5796 6.29297 10.5091 6.37466 10.4366 6.4547C10.4087 6.4547 10.3808 6.4547 10.3521 6.4547C10.3382 6.49514 10.3242 6.53559 10.3099 6.57726C10.2016 6.6462 10.2016 6.6462 10.0986 6.69982C10.1265 6.64589 10.1544 6.59196 10.1831 6.5364C10.211 6.5364 10.2389 6.5364 10.2676 6.5364C10.2772 6.51366 10.2868 6.49091 10.2967 6.46747C10.3673 6.34716 10.46 6.26345 10.5634 6.16873Z" fill="#3A81E8"/>
<path d="M4.52112 13.1545C4.54901 13.168 4.5769 13.1815 4.60563 13.1954C4.53735 13.2788 4.4668 13.3605 4.39436 13.4405C4.36647 13.4405 4.33859 13.4405 4.30985 13.4405C4.29853 13.4658 4.2872 13.491 4.27552 13.5171C4.22535 13.6039 4.22535 13.6039 4.09859 13.6856C4.15541 13.5205 4.22748 13.4247 4.35739 13.3052C4.388 13.2767 4.41861 13.2482 4.45015 13.2188C4.47357 13.1976 4.49699 13.1764 4.52112 13.1545Z" fill="#3A83E7"/>
<path d="M10.0986 12.8277C10.2993 12.8635 10.2993 12.8635 10.3944 12.9094C10.3944 12.9364 10.3944 12.9633 10.3944 12.9911C10.4214 12.9953 10.4484 12.9995 10.4762 13.0039C10.505 13.0132 10.5337 13.0224 10.5634 13.032C10.5773 13.0724 10.5913 13.1129 10.6056 13.1545C10.4852 13.0981 10.3708 13.0363 10.257 12.9681C10.2272 12.9504 10.1973 12.9326 10.1666 12.9144C10.1441 12.8993 10.1217 12.8841 10.0986 12.8686C10.0986 12.8551 10.0986 12.8416 10.0986 12.8277Z" fill="#2843FE"/>
<path d="M9.97183 6.74068C9.99972 6.74068 10.0276 6.74068 10.0563 6.74068C10.0091 6.86389 9.94595 6.93044 9.84243 7.01133C9.71796 7.09492 9.71796 7.09492 9.67606 7.19006C9.64817 7.17657 9.62029 7.16309 9.59155 7.1492C9.63174 7.1013 9.67231 7.05369 9.71303 7.00622C9.74686 6.96641 9.74686 6.96641 9.78136 6.92579C9.80239 6.90515 9.82341 6.8845 9.84507 6.86323C9.87296 6.86323 9.90085 6.86323 9.92958 6.86323C9.94352 6.82279 9.95747 6.78235 9.97183 6.74068Z" fill="#3A82ED"/>
<path d="M12.8028 22.1421C12.8307 22.1556 12.8586 22.1691 12.8873 22.183C12.8419 22.2233 12.796 22.2632 12.75 22.303C12.7118 22.3364 12.7118 22.3364 12.6728 22.3705C12.588 22.4306 12.5252 22.4516 12.4225 22.4689C12.4225 22.442 12.4225 22.415 12.4225 22.3872C12.4644 22.3872 12.5062 22.3872 12.5493 22.3872C12.5493 22.3468 12.5493 22.3063 12.5493 22.2647C12.6323 22.221 12.717 22.1803 12.8028 22.1421Z" fill="#3E83E3"/>
<path d="M13.3099 21.611C13.3377 21.611 13.3656 21.611 13.3944 21.611C13.3201 21.7872 13.1913 21.9339 13.0141 22.0195C13.0704 21.9106 13.1268 21.8017 13.1831 21.6927C13.2249 21.6927 13.2668 21.6927 13.3099 21.6927C13.3099 21.6658 13.3099 21.6388 13.3099 21.611Z" fill="#2843FE"/>
<path d="M19.5211 9.88632C19.563 9.8998 19.6048 9.91328 19.6479 9.92717C19.6479 9.95414 19.6479 9.9811 19.6479 10.0089C19.6871 10.024 19.6871 10.024 19.7271 10.0395C19.8317 10.099 19.8571 10.1469 19.9014 10.254C19.6089 10.0717 19.6089 10.0717 19.5211 9.96803C19.5211 9.94106 19.5211 9.9141 19.5211 9.88632Z" fill="#378BEF"/>
<path d="M18.6761 14.135C18.8041 14.2052 18.9196 14.2695 19.0141 14.3801C19.0141 14.4071 19.0141 14.434 19.0141 14.4618C18.9296 14.4618 18.9296 14.4618 18.8398 14.3852C18.7606 14.2984 18.7606 14.2984 18.7606 14.2167C18.7327 14.2167 18.7048 14.2167 18.6761 14.2167C18.6761 14.1897 18.6761 14.1628 18.6761 14.135Z" fill="#4081F0"/>
<path d="M5.32394 11.3162C5.27963 11.4233 5.25425 11.4711 5.14964 11.5306C5.1235 11.5407 5.09736 11.5509 5.07042 11.5613C5.08362 11.4847 5.08362 11.4847 5.11267 11.3979C5.23943 11.3162 5.23943 11.3162 5.32394 11.3162Z" fill="#3C84F0"/>
<path d="M6.50705 10.6217C6.54888 10.6352 6.59071 10.6486 6.63381 10.6625C6.61987 10.6895 6.60592 10.7165 6.59156 10.7442C6.56367 10.7307 6.53578 10.7173 6.50705 10.7034C6.50705 10.6764 6.50705 10.6495 6.50705 10.6217Z" fill="#40BFFF"/>
<path d="M8.78873 20.0178C8.83056 20.0582 8.87239 20.0986 8.91549 20.1403C8.87366 20.1268 8.83183 20.1134 8.78873 20.0995C8.78873 20.0725 8.78873 20.0455 8.78873 20.0178Z" fill="#33CCFF"/>
<path d="M6.76056 17.73C6.80239 17.7705 6.84422 17.8109 6.88732 17.8526C6.84549 17.8391 6.80366 17.8256 6.76056 17.8117C6.76056 17.7848 6.76056 17.7578 6.76056 17.73Z" fill="#2AD4FF"/>
<path d="M0.338028 8.12967C0.380281 8.29308 0.380281 8.29308 0.380281 8.29308L0.338028 8.12967Z" fill="#30BFFF"/>
<path d="M4.73239 15.524C4.85915 15.5648 4.85915 15.5648 4.85915 15.5648L4.73239 15.524Z" fill="#38C6FF"/>
<path d="M25.8592 3.1048C25.901 3.12502 25.901 3.12502 25.9437 3.14565C25.9018 3.16587 25.9018 3.16587 25.8592 3.1865C25.8592 3.15954 25.8592 3.13258 25.8592 3.1048Z" fill="#55AAFF"/>
<path d="M17.9155 0.367676C18.0423 0.408528 18.0423 0.408528 18.0423 0.408528L17.9155 0.367676Z" fill="#47B8FF"/>
<path d="M16.4366 20.4671C16.5211 20.508 16.5211 20.508 16.5211 20.508L16.4366 20.4671Z" fill="#00FFFF"/>
<path d="M19.3944 18.2611C19.4789 18.302 19.4789 18.302 19.4789 18.302L19.3944 18.2611Z" fill="#20BFFF"/>
<path d="M13.8592 17.5666C13.9437 17.6075 13.9437 17.6075 13.9437 17.6075L13.8592 17.5666Z" fill="#5595FF"/>
<path d="M6.0845 17.0764C6.16901 17.1172 6.16901 17.1172 6.16901 17.1172L6.0845 17.0764Z" fill="#40BFFF"/>
<path d="M11.5775 15.7691C11.662 15.8099 11.662 15.8099 11.662 15.8099L11.5775 15.7691Z" fill="#4A95FF"/>
<path d="M21.3803 15.6057C21.4648 15.6465 21.4648 15.6465 21.4648 15.6465L21.3803 15.6057Z" fill="#19CCFF"/>
<path d="M4.90141 15.5648C4.98592 15.6057 4.98592 15.6057 4.98592 15.6057L4.90141 15.5648Z" fill="#00FFFF"/>
<path d="M5.32394 15.524C5.40845 15.5648 5.40845 15.5648 5.40845 15.5648L5.32394 15.524Z" fill="#55AAFF"/>
<path d="M9.33803 12.746C9.42254 12.7869 9.42254 12.7869 9.42254 12.7869L9.33803 12.746Z" fill="#6080FF"/>
<path d="M25.8592 10.9893C25.9437 11.0302 25.9437 11.0302 25.9437 11.0302L25.8592 10.9893Z" fill="#00FFFF"/>
<path d="M6.67606 10.6217C6.76056 10.6625 6.76056 10.6625 6.76056 10.6625L6.67606 10.6217Z" fill="#40BFFF"/>
<path d="M26.9155 5.5968C27 5.63765 27 5.63765 27 5.63765L26.9155 5.5968Z" fill="#40BFFF"/>
<path d="M22.5634 0.694489C22.6479 0.735341 22.6479 0.735341 22.6479 0.735341L22.5634 0.694489Z" fill="#40BFFF"/>
<path d="M9.5493 0.490234C9.63381 0.531087 9.63381 0.531087 9.63381 0.531087L9.5493 0.490234Z" fill="#8080FF"/>
<path d="M20.1972 0.204269C20.2817 0.245122 20.2817 0.245122 20.2817 0.245122L20.1972 0.204269Z" fill="#8080FF"/>
</g>
<defs>
<clipPath id="clip0_19_8">
<rect width="27" height="23" fill="white"/>
</clipPath>
</defs>
</svg>
